<?xml version="1.0" standalone="no"?>
<!DOCTYPE svg PUBLIC "-//W3C//DTD SVG 20010904//EN"
 "http://www.w3.org/TR/2001/REC-SVG-20010904/DTD/svg10.dtd">
<svg version="1.0" xmlns="http://www.w3.org/2000/svg"
 width="1300.000000pt" height="1300.000000pt" viewBox="0 0 1300.000000 1300.000000"
 preserveAspectRatio="xMidYMid meet">

<g transform="translate(0.000000,1300.000000) scale(0.100000,-0.100000)"
fill="#000000" stroke="none">
<path d="M10740 9408 c0 -16 47 -87 54 -81 4 4 4 0 1 -8 -3 -9 -1 -29 6 -45 6
-16 13 -38 15 -49 7 -50 26 -120 34 -125 4 -3 35 -3 69 -2 56 3 60 5 51 22 -6
10 -10 32 -10 49 0 24 -4 31 -20 31 -11 0 -20 6 -20 14 0 8 -40 56 -90 108
-49 51 -90 90 -90 86z"/>
<path d="M11071 8906 c-1 -37 2 -47 10 -39 8 8 8 22 1 50 l-10 38 -1 -49z"/>
<path d="M11062 8810 c0 -14 2 -19 5 -12 2 6 2 18 0 25 -3 6 -5 1 -5 -13z"/>
<path d="M10765 8754 c-36 -59 -42 -70 -47 -91 -4 -13 -3 -25 2 -28 4 -2 8
-36 9 -75 2 -106 6 -110 123 -110 54 0 98 4 98 9 0 5 -5 11 -10 13 -18 6 9 68
30 68 13 0 20 14 30 60 7 33 16 60 21 60 4 0 10 -19 12 -42 2 -24 4 0 5 52 l2
95 -83 3 c-45 2 -103 5 -130 7 -42 3 -49 1 -62 -21z m262 -26 c-3 -8 -6 -5 -6
6 -1 11 2 17 5 13 3 -3 4 -12 1 -19z"/>
<path d="M2485 8475 c16 -13 31 -22 33 -20 2 2 15 0 28 -5 38 -15 28 -2 -13
17 -73 33 -79 34 -48 8z"/>
<path d="M10430 8447 l-30 -8 0 -109 c0 -91 3 -110 15 -110 8 0 15 -8 15 -18
0 -25 7 -31 31 -25 10 3 19 14 19 24 0 17 8 19 80 19 73 0 80 2 80 20 0 15 7
20 29 20 28 0 29 3 40 63 6 35 11 78 11 95 l0 31 -130 3 c-72 2 -144 -1 -160
-5z"/>
<path d="M2602 8399 c1 -34 9 -47 59 -94 32 -30 65 -55 73 -55 9 0 16 -5 16
-11 0 -6 6 -9 14 -6 13 5 68 -10 92 -25 16 -11 53 2 58 21 3 9 8 51 12 94 l6
77 -88 0 c-52 0 -121 8 -166 19 l-78 18 2 -38z"/>
<path d="M3252 8298 c1 -84 2 -94 8 -53 l7 50 2 -50 c2 -84 6 -91 52 -87 21 2
39 8 39 13 0 5 42 9 94 9 82 0 95 -2 99 -17 2 -10 7 27 11 82 3 55 9 112 11
128 l5 27 -165 0 -165 0 2 -102z"/>
<path d="M3900 8326 c0 -104 8 -138 31 -131 10 3 21 0 26 -9 9 -15 63 -11 63
5 0 5 36 9 80 9 47 0 80 4 80 10 0 6 8 10 19 10 16 0 19 11 24 76 3 42 3 82 0
90 -4 11 -37 14 -164 14 l-159 0 0 -74z"/>
<path d="M4547 8374 c-4 -21 1 -27 22 -35 65 -25 87 -78 57 -137 -26 -52 -28
-68 -6 -68 11 0 20 4 20 8 0 4 -4 8 -9 8 -4 0 -6 11 -3 25 2 14 9 22 14 19 5
-3 7 -12 4 -20 -3 -8 0 -11 10 -7 7 3 14 0 14 -6 0 -6 -4 -11 -10 -11 -5 0
-10 -5 -10 -12 0 -6 13 1 30 17 16 16 27 31 24 34 -3 3 -9 -1 -14 -8 -7 -12
-11 -11 -25 3 -10 9 -14 20 -11 24 4 3 10 1 14 -5 4 -6 20 -9 36 -8 20 3 34
-3 46 -17 21 -26 67 -18 79 15 9 23 13 19 25 -28 3 -11 4 -1 2 22 -3 28 1 46
10 54 8 6 14 16 14 23 0 6 -17 -7 -38 -30 -29 -30 -43 -39 -58 -34 -10 4 -23
2 -27 -4 -5 -6 -5 0 -2 13 4 13 27 44 51 70 48 51 55 75 24 91 -23 12 -57 -1
-78 -32 -14 -20 -39 -23 -62 -8 -13 9 -10 15 18 40 l32 30 -49 0 c-31 0 -53
-5 -61 -15 -12 -14 -15 -14 -30 0 -25 23 -47 18 -53 -11z"/>
<path d="M5204 8338 c13 -112 15 -118 46 -118 16 0 30 -4 32 -8 2 -5 53 -12
115 -15 l112 -6 5 32 c3 17 8 65 11 105 l6 72 -167 0 -167 0 7 -62z"/>
<path d="M5850 8308 c0 -65 3 -89 10 -78 7 11 8 2 4 -30 l-6 -45 16 29 c9 15
17 40 18 55 0 16 4 9 8 -19 4 -25 8 -35 8 -22 2 21 17 31 24 14 2 -5 53 -12
115 -16 l112 -6 5 42 c3 24 7 71 10 106 l6 62 -165 0 -165 0 0 -92z"/>
<path d="M6500 8296 c0 -60 4 -108 10 -111 6 -3 12 0 15 7 4 10 34 12 130 9
87 -2 125 0 125 8 0 18 30 12 32 -6 1 -10 4 20 7 67 10 142 25 130 -160 130
l-159 0 0 -104z"/>
<path d="M7150 8356 c0 -71 12 -166 21 -166 5 0 9 17 10 38 1 39 3 37 14 -12
5 -22 9 -26 15 -16 6 10 30 12 114 7 92 -6 106 -5 106 9 0 36 20 -1 21 -39 2
-40 2 -40 9 13 5 30 8 90 9 133 l1 77 -160 0 -160 0 0 -44z"/>
<path d="M7800 8372 c0 -28 17 -132 26 -162 5 -13 6 -13 15 0 8 13 12 12 25
-5 8 -11 19 -26 24 -34 7 -13 10 -12 24 1 20 20 21 67 2 94 -16 23 -24 103
-12 122 5 9 -8 12 -48 12 -55 0 -56 -1 -56 -28z"/>
<path d="M7950 8370 c-11 -26 -9 -35 15 -82 23 -44 26 -60 21 -102 -5 -44 -4
-47 8 -30 7 10 15 28 17 39 5 24 39 34 39 11 0 -22 17 -20 23 2 3 12 5 10 6
-7 l1 -24 20 23 c13 15 20 37 20 65 0 23 3 63 6 89 l7 46 -85 0 c-85 0 -86 0
-98 -30z"/>
<path d="M8535 8316 c0 -84 0 -84 -38 -121 -20 -20 -37 -41 -37 -47 0 -6 11
-1 25 12 14 13 25 18 25 12 0 -25 27 -10 75 39 56 58 97 79 152 79 l38 0 0 55
0 55 -120 0 -120 0 0 -84z m35 -90 c0 -3 -4 -8 -10 -11 -5 -3 -10 -1 -10 4 0
6 5 11 10 11 6 0 10 -2 10 -4z m-31 -42 c-6 -7 -15 -11 -21 -8 -5 3 -4 12 3
20 6 7 15 11 21 8 5 -3 4 -12 -3 -20z"/>
<path d="M9102 8301 c3 -97 11 -128 27 -103 11 19 217 14 237 -5 12 -13 14
-12 14 6 0 14 6 21 20 21 19 0 20 7 20 90 l0 90 -161 0 -161 0 4 -99z"/>
<path d="M9750 8303 c0 -54 4 -102 8 -108 4 -6 63 -10 140 -10 119 0 132 2
132 18 0 38 20 14 21 -25 2 -45 11 23 22 160 l5 62 -164 0 -164 0 0 -97z"/>
<path d="M4550 8238 c1 -42 1 -43 15 -18 19 33 19 60 0 60 -11 0 -15 -11 -15
-42z"/>
<path d="M3973 8143 c9 -2 25 -2 35 0 9 3 1 5 -18 5 -19 0 -27 -2 -17 -5z"/>
<path d="M4746 8141 c-4 -5 12 -7 36 -4 57 8 61 13 10 13 -22 0 -43 -4 -46 -9z"/>
<path d="M5938 8143 c23 -2 61 -2 85 0 23 2 4 4 -43 4 -47 0 -66 -2 -42 -4z"/>
<path d="M7258 8143 c18 -2 45 -2 60 0 15 2 0 4 -33 4 -33 0 -45 -2 -27 -4z"/>
<path d="M8023 8143 c9 -2 23 -2 30 0 6 3 -1 5 -18 5 -16 0 -22 -2 -12 -5z"/>
<path d="M8088 8143 c7 -3 16 -2 19 1 4 3 -2 6 -13 5 -11 0 -14 -3 -6 -6z"/>
<path d="M8755 8140 c-3 -5 -1 -10 4 -10 6 0 11 5 11 10 0 6 -2 10 -4 10 -3 0
-8 -4 -11 -10z"/>
<path d="M9378 8143 c7 -3 16 -2 19 1 4 3 -2 6 -13 5 -11 0 -14 -3 -6 -6z"/>
<path d="M10448 8143 c6 -2 18 -2 25 0 6 3 1 5 -13 5 -14 0 -19 -2 -12 -5z"/>
<path d="M4360 8100 c0 -5 7 -10 15 -10 8 0 15 5 15 10 0 6 -7 10 -15 10 -8 0
-15 -4 -15 -10z"/>
<path d="M4480 8106 c0 -2 8 -10 18 -17 15 -13 16 -12 3 4 -13 16 -21 21 -21
13z"/>
<path d="M8427 8073 c-4 -3 -7 -11 -7 -17 0 -6 5 -5 12 2 6 6 9 14 7 17 -3 3
-9 2 -12 -2z"/>
<path d="M4288 8023 c7 -3 16 -2 19 1 4 3 -2 6 -13 5 -11 0 -14 -3 -6 -6z"/>
<path d="M10776 6783 c9 -21 18 -45 21 -53 3 -8 7 -22 10 -30 8 -21 11 -34 26
-120 l13 -75 87 -3 c48 -1 87 0 87 3 0 3 -7 17 -16 30 -9 14 -14 31 -11 39 4
10 1 13 -7 10 -8 -3 -16 8 -22 28 -7 24 -16 33 -31 32 -15 0 -19 5 -15 18 3
14 0 17 -13 11 -12 -4 -16 -3 -12 4 6 10 -111 143 -126 143 -4 0 0 -17 9 -37z"/>
<path d="M11010 6560 c0 -5 5 -10 11 -10 5 0 7 5 4 10 -3 6 -8 10 -11 10 -2 0
-4 -4 -4 -10z"/>
<path d="M11052 6323 c-1 -67 1 -124 6 -126 4 -3 6 34 4 81 -4 153 -8 170 -10
45z"/>
<path d="M10764 6182 c-30 -20 -38 -58 -36 -172 2 -86 7 -118 18 -126 7 -6 14
-16 14 -23 0 -6 5 -11 10 -11 6 0 9 5 8 12 -2 8 11 11 40 9 24 -1 61 0 82 4
l40 7 0 49 c0 42 3 49 20 49 17 0 20 7 20 40 0 33 3 40 20 40 14 0 21 7 22 23
1 12 4 -5 8 -38 6 -57 7 -55 7 30 1 58 -2 81 -7 65 -7 -22 -8 -22 -9 -4 -1 19
-11 22 -108 32 -76 9 -109 9 -111 2 -3 -7 -9 -5 -16 4 -6 9 -16 12 -22 8z"/>
<path d="M2510 5896 c26 -27 53 -46 66 -46 42 0 19 30 -47 61 l-64 30 45 -45z"/>
<path d="M10340 5864 l-45 -12 53 -1 c34 -1 52 -5 53 -13 0 -7 0 -48 -1 -90
-1 -63 2 -78 14 -78 8 0 18 -9 21 -20 6 -20 45 -29 45 -10 0 6 9 10 20 10 11
0 20 5 20 11 0 7 11 9 30 5 38 -7 130 13 130 30 0 6 9 14 20 17 17 4 20 14 20
55 0 40 -4 52 -17 55 -17 4 -17 5 0 6 9 0 17 6 17 12 0 5 4 8 9 4 5 -3 12 -2
14 2 3 5 -73 7 -169 5 -153 -3 -174 -1 -174 12 0 18 1 18 -60 0z m283 -41 c-7
-2 -19 -2 -25 0 -7 3 -2 5 12 5 14 0 19 -2 13 -5z"/>
<path d="M10848 5853 c34 -2 90 -2 125 0 34 2 6 3 -63 3 -69 0 -97 -1 -62 -3z"/>
<path d="M2607 5843 c-18 -17 -1 -45 59 -99 37 -33 73 -65 80 -72 10 -10 17
-10 33 0 15 9 31 9 72 0 29 -7 56 -9 60 -5 4 5 10 44 14 89 l7 81 -114 6
c-144 9 -203 9 -211 0z m41 -68 c-3 -3 -9 2 -12 12 -6 14 -5 15 5 6 7 -7 10
-15 7 -18z"/>
<path d="M3252 5708 c1 -118 2 -125 8 -58 l6 75 2 -60 c3 -72 22 -114 22 -47
0 46 8 52 30 22 10 -14 16 -16 22 -7 6 9 11 8 19 -3 8 -11 12 -12 16 -2 2 6
13 12 24 12 10 0 19 5 19 10 0 6 16 10 35 10 19 0 35 -4 35 -10 0 -16 15 -12
45 14 15 13 26 28 24 34 -2 6 -32 40 -67 76 l-62 66 -90 0 -90 0 2 -132z"/>
<path d="M3460 5834 c0 -5 14 -18 95 -94 l26 -25 -9 25 c-5 14 -6 34 -1 45 19
48 13 55 -51 55 -33 0 -60 -3 -60 -6z"/>
<path d="M3900 5748 c0 -127 4 -139 44 -131 17 3 34 11 39 17 5 8 10 6 18 -4
8 -11 12 -12 16 -2 3 8 34 12 104 12 l99 0 0 100 0 100 -160 0 -160 0 0 -92z"/>
<path d="M4551 5778 c1 -66 15 -180 18 -140 1 22 3 22 141 22 l140 0 1 -42 c1
-72 8 -29 17 100 l7 122 -162 0 -163 0 1 -62z"/>
<path d="M5200 5813 c0 -14 5 -55 11 -90 l11 -63 149 0 149 0 0 74 c0 41 3 81
6 90 5 14 -13 16 -160 16 l-166 0 0 -27z"/>
<path d="M5851 5723 c1 -72 4 -106 9 -88 l7 30 4 -29 c4 -29 4 -30 23 -10 14
13 21 15 24 6 6 -19 22 -14 22 8 0 19 7 20 105 20 102 0 105 -1 106 -22 2 -42
17 44 21 125 l5 77 -164 0 -163 0 1 -117z"/>
<path d="M6500 5761 c0 -43 3 -93 6 -110 7 -34 24 -42 24 -11 0 19 7 20 140
20 138 0 140 0 142 -22 1 -13 4 18 7 67 10 148 25 135 -160 135 l-159 0 0 -79z"/>
<path d="M7145 5826 c5 -13 13 -118 15 -196 2 -43 4 -50 10 -30 4 14 9 45 10
70 2 27 4 35 7 20 11 -69 10 -69 55 -63 50 7 57 11 39 23 -12 7 -11 11 2 25
13 13 15 21 6 36 -5 11 -14 17 -20 14 -5 -4 -9 -3 -8 2 4 22 -2 32 -16 27 -8
-4 -15 -1 -15 6 0 6 4 9 9 5 5 -3 12 -1 16 4 3 6 -3 8 -14 6 -19 -4 -59 40
-47 52 9 9 37 -19 32 -32 -2 -6 3 -11 13 -11 9 1 17 -2 19 -6 7 -16 96 -98
112 -103 10 -3 21 -16 25 -28 6 -19 8 -19 12 -4 2 9 13 17 24 17 24 0 24 -7 1
-28 -10 -10 -12 -13 -4 -8 10 7 13 6 10 -5 -1 -7 2 -15 7 -17 11 -3 20 59 27
171 l4 68 -167 -2 c-120 -1 -166 -5 -164 -13z"/>
<path d="M7803 5803 c4 -21 9 -58 13 -83 4 -25 12 -48 18 -52 6 -4 73 -8 149
-8 l137 0 0 53 c0 28 3 69 6 90 l7 37 -168 0 -168 0 6 -37z"/>
<path d="M8452 5713 c1 -107 3 -117 8 -63 6 60 7 62 8 18 2 -45 22 -71 22 -28
0 16 7 20 35 20 19 0 35 -4 35 -10 0 -6 38 -10 94 -10 66 0 96 -4 99 -12 5
-14 14 58 20 155 l4 57 -164 0 -163 0 2 -127z"/>
<path d="M9100 5755 c0 -50 4 -85 10 -85 6 0 10 -7 10 -15 0 -12 16 -15 78
-16 42 -1 94 -2 115 -4 27 -3 37 0 37 11 0 9 7 14 18 12 12 -2 16 3 14 16 -2
11 1 15 7 11 6 -3 11 -1 11 5 0 6 4 9 9 6 4 -3 9 28 10 69 l2 75 -160 0 -161
0 0 -85z"/>
<path d="M9751 5743 c1 -54 5 -111 9 -128 l8 -30 1 28 1 27 130 0 c109 0 130
2 130 15 0 24 20 17 21 -7 2 -40 16 42 22 120 l4 72 -163 0 -164 0 1 -97z"/>
<path d="M7296 5673 c-9 -22 9 -39 26 -25 11 8 17 6 28 -11 8 -12 13 -28 12
-34 -2 -8 4 -10 15 -6 16 6 16 4 -2 -18 l-20 -24 22 18 c12 11 24 14 27 9 3
-6 1 -13 -4 -15 -7 -4 -6 -5 1 -4 17 4 9 19 -39 75 -49 56 -57 61 -66 35z"/>
<path d="M3543 5655 c-16 -18 -16 -22 1 -28 10 -4 13 -1 9 9 -3 7 0 14 6 14 6
0 11 5 11 10 0 14 -13 12 -27 -5z"/>
<path d="M9377 5622 c-14 -14 -21 -15 -37 -4 -19 12 -20 11 -8 -8 7 -11 16
-20 19 -20 12 0 54 38 48 44 -3 3 -13 -2 -22 -12z"/>
<path d="M9280 5620 c-9 -6 -10 -10 -3 -10 6 0 15 5 18 10 8 12 4 12 -15 0z"/>
<path d="M9291 5596 c-9 -11 -9 -16 0 -22 7 -4 9 -3 5 4 -3 6 2 15 11 21 10 6
13 11 7 11 -6 0 -17 -6 -23 -14z"/>
<path d="M9316 5573 c-6 -14 -5 -15 5 -6 7 7 10 15 7 18 -3 3 -9 -2 -12 -12z"/>
<path d="M10786 4221 c-3 -5 0 -24 8 -42 20 -48 46 -180 46 -234 l0 -45 74 0
c41 0 80 2 88 5 19 8 11 105 -9 105 -10 0 -13 6 -9 16 5 14 4 15 -8 5 -17 -14
-29 8 -20 37 4 12 3 13 -3 4 -8 -10 -12 -10 -23 3 -10 12 -10 15 0 15 11 0
-25 42 -104 121 -22 21 -32 24 -40 10z"/>
<path d="M11052 3768 c-1 -26 3 -50 8 -53 8 -5 7 -12 -2 -23 -9 -12 -6 -11 10
2 24 21 29 37 10 34 -8 -2 -15 14 -19 42 l-6 45 -1 -47z"/>
<path d="M11096 3702 c-3 -5 1 -9 9 -9 8 0 12 4 9 9 -3 4 -7 8 -9 8 -2 0 -6
-4 -9 -8z"/>
<path d="M11062 3630 c-2 -22 1 -40 6 -40 9 0 9 66 0 75 -2 2 -5 -13 -6 -35z"/>
<path d="M10724 3570 c-7 -7 -8 -31 -3 -68 4 -31 10 -94 12 -138 3 -45 10 -90
16 -100 6 -11 11 -13 11 -6 0 8 20 12 66 12 55 0 65 3 60 15 -3 8 -1 15 4 15
6 0 10 11 10 24 0 33 10 56 24 56 7 0 22 21 34 46 16 33 27 44 38 40 9 -3 19
-6 24 -6 5 0 11 -10 13 -22 2 -13 5 9 6 48 l1 72 -32 5 c-18 2 -34 1 -36 -4
-5 -12 -32 -12 -32 0 0 5 -41 9 -90 10 -50 1 -96 4 -103 7 -7 2 -17 0 -23 -6z
m221 -31 c4 -5 -5 -14 -19 -21 -22 -9 -24 -14 -13 -27 11 -14 10 -14 -5 -2
-16 12 -18 11 -18 -3 0 -9 -8 -16 -17 -16 -13 0 -14 -3 -6 -11 6 -6 9 -18 6
-25 -3 -8 0 -14 6 -14 8 0 8 -4 -1 -14 -9 -10 -15 -11 -20 -2 -6 8 -10 7 -17
-2 -7 -11 -9 -11 -14 2 -6 15 -8 15 -25 -1 -10 -10 -17 -21 -15 -25 5 -10 -37
-31 -45 -23 -4 3 13 24 37 45 27 25 41 45 38 54 -4 10 -1 13 9 9 13 -5 75 50
73 65 -2 14 2 18 21 19 11 1 22 -2 25 -8z m12 -54 c-8 -9 -14 -10 -19 -2 -9
16 0 27 17 21 11 -5 12 -9 2 -19z m-159 -159 c-7 -8 -15 -12 -17 -11 -5 6 10
25 20 25 5 0 4 -6 -3 -14z"/>
<path d="M10835 3440 c-10 -11 -16 -20 -14 -21 34 -7 45 -3 44 13 -2 28 -10
30 -30 8z"/>
<path d="M2527 3321 c32 -32 61 -56 66 -54 4 2 7 15 7 28 0 20 -11 30 -60 55
-33 16 -62 30 -65 30 -3 0 20 -26 52 -59z"/>
<path d="M10350 3308 c-14 -6 -82 -13 -152 -16 -94 -3 -128 -8 -128 -17 0 -21
26 -25 179 -25 l148 0 13 -25 c14 -26 18 -120 7 -163 -5 -20 -4 -22 8 -12 8 6
11 19 8 27 -4 11 -2 14 5 9 6 -4 23 1 37 10 22 14 24 14 19 1 -3 -8 0 -18 6
-22 11 -7 9 23 -5 58 -4 10 -3 17 5 17 6 0 8 -6 4 -12 -7 -13 55 39 68 57 4 5
2 16 -5 25 -6 8 -7 12 -3 8 5 -4 14 -3 21 2 7 6 19 4 34 -6 l22 -16 -22 -24
c-13 -14 -27 -20 -33 -16 -6 5 -21 -2 -36 -16 -14 -14 -19 -22 -12 -18 15 9
17 -30 2 -39 -5 -3 -10 -11 -10 -16 0 -6 11 2 24 18 22 25 26 26 51 15 23 -11
30 -10 44 1 9 8 22 12 30 9 18 -6 32 18 21 39 -7 12 -5 21 5 29 8 7 15 23 15
36 0 21 -5 24 -39 24 -22 0 -42 -6 -45 -12 -5 -10 -7 -10 -12 0 -4 8 -37 12
-115 12 l-109 0 0 35 c0 37 -8 41 -50 23z"/>
<path d="M2921 3283 c5 -31 -3 -33 -158 -33 l-158 -1 69 -65 c43 -40 74 -63
83 -59 8 3 35 -2 59 -10 25 -8 58 -15 74 -15 l30 0 0 75 0 76 168 -3 167 -3 0
23 c0 22 0 22 -167 22 -93 0 -167 -3 -167 -7z"/>
<path d="M3567 3270 c5 -19 14 -20 163 -20 120 0 160 3 169 13 6 8 8 17 4 20
-3 4 -82 7 -174 7 -162 0 -167 -1 -162 -20z"/>
<path d="M4217 3270 c-5 -19 -14 -20 -162 -20 l-157 0 4 -74 c2 -41 6 -78 10
-81 10 -10 68 -12 68 -3 0 14 228 10 233 -4 3 -7 6 26 6 75 l1 87 165 0 165 0
1 -67 c1 -63 15 -150 18 -110 1 16 31 26 31 10 0 -11 194 -3 198 8 6 15 39 10
46 -7 3 -9 7 -32 8 -52 2 -46 15 80 17 160 l1 57 -157 3 c-143 3 -158 5 -157
21 2 16 -12 17 -166 17 -159 0 -168 -1 -173 -20z"/>
<path d="M4875 3280 c-15 -25 13 -30 165 -30 126 0 159 3 163 14 3 8 3 17 0
20 -11 11 -321 7 -328 -4z"/>
<path d="M5524 3273 c1 -16 -14 -18 -159 -23 -134 -4 -160 -7 -158 -20 1 -8 4
-40 8 -72 l6 -56 82 -7 c45 -4 111 -5 147 -3 l65 3 3 45 c1 25 5 60 7 78 l6
32 154 0 c144 0 155 1 165 20 11 20 8 20 -159 20 -155 0 -169 -1 -167 -17z"/>
<path d="M6170 3276 c0 -22 24 -26 175 -26 134 0 145 1 155 20 11 20 8 20
-160 20 -139 0 -170 -3 -170 -14z"/>
<path d="M6820 3270 c0 -19 -7 -20 -160 -20 l-160 0 1 -72 c1 -71 16 -153 18
-100 1 19 7 22 40 22 22 0 41 -4 43 -9 4 -12 158 -20 158 -9 0 5 4 7 10 3 13
-8 1 -35 -16 -35 -8 0 -14 5 -14 12 0 18 -10 3 -15 -22 -2 -12 -2 -20 2 -16 3
3 12 1 20 -5 7 -6 14 -9 14 -5 7 34 21 56 32 49 6 -4 8 0 4 10 -7 19 9 33 17
15 2 -7 4 -4 4 7 -1 11 0 50 0 88 l2 67 88 0 c76 0 91 3 107 20 18 20 17 20
-88 20 -100 0 -107 -1 -107 -20z m-69 -237 c13 -16 12 -17 -3 -4 -10 7 -18 15
-18 17 0 8 8 3 21 -13z"/>
<path d="M7025 3270 c-18 -20 -17 -20 52 -20 l71 0 7 -117 c8 -114 19 -127 26
-28 2 35 3 36 6 10 5 -30 23 -60 23 -37 0 10 26 12 98 11 53 -1 107 1 120 5
20 7 22 4 23 -36 l2 -43 7 50 c5 28 9 82 9 120 l1 70 162 -3 c103 -2 165 -7
169 -14 4 -6 10 -44 14 -84 4 -41 11 -74 16 -74 5 0 9 5 9 10 0 6 51 10 134
10 153 0 146 -4 146 91 l0 59 -160 0 c-148 0 -161 1 -158 18 3 15 -11 17 -159
20 -155 2 -163 2 -173 -18 -10 -20 -19 -20 -163 -18 -138 3 -152 5 -151 21 3
27 -106 25 -131 -3z"/>
<path d="M8122 3273 c3 -16 20 -18 166 -21 l162 -2 2 -118 c1 -93 3 -106 8
-62 l7 55 3 -55 c2 -37 4 -45 7 -24 l4 31 112 6 c62 4 122 10 135 13 17 5 22
2 23 -12 0 -18 1 -18 9 1 5 11 9 53 9 93 l1 72 159 0 c120 0 161 3 170 13 6 8
8 17 4 20 -3 4 -78 7 -166 7 -150 0 -159 -1 -164 -20 -5 -19 -14 -20 -160 -20
-146 0 -155 1 -160 20 -5 19 -14 20 -170 20 -151 0 -164 -1 -161 -17z"/>
<path d="M9424 3279 c-15 -24 19 -29 167 -27 137 3 154 5 157 21 2 11 -3 17
-13 17 -15 0 -15 -3 -5 -15 11 -13 10 -14 -4 -9 -9 3 -16 10 -16 15 0 13 -277
11 -286 -2z"/>
<path d="M3314 3251 c-10 -2 -28 -10 -41 -18 -21 -14 -23 -22 -21 -97 l1 -81
7 60 c5 43 7 50 8 23 3 -50 12 -74 23 -56 6 9 37 14 99 17 113 4 160 -4 161
-27 3 -44 17 41 18 105 l1 72 -119 3 c-65 2 -127 1 -137 -1z"/>
<path d="M5933 3252 l-83 -3 0 -75 c0 -48 4 -73 10 -69 6 4 10 -11 11 -37 1
-36 2 -39 9 -18 4 14 9 41 11 60 1 20 5 3 9 -40 6 -67 7 -70 8 -22 2 46 14 69
24 43 2 -5 54 -11 116 -13 91 -4 112 -2 112 9 0 9 5 11 12 7 6 -4 -1 11 -18
33 -16 23 -32 39 -36 37 -4 -2 -9 0 -13 6 -4 6 -10 8 -15 5 -5 -3 -7 3 -5 14
3 19 -27 53 -55 62 -8 2 -52 3 -97 1z"/>
<path d="M6070 3239 c0 -6 6 -9 13 -6 9 3 13 -2 12 -16 -3 -30 14 -50 30 -37
10 8 15 8 21 -1 4 -8 3 -9 -4 -5 -7 4 -12 5 -12 2 0 -3 9 -10 20 -16 19 -10
20 -8 20 40 l0 50 -50 0 c-30 0 -50 -4 -50 -11z m90 -25 c0 -8 -19 -13 -24 -6
-3 5 1 9 9 9 8 0 15 -2 15 -3z m-43 -19 c0 -8 -4 -12 -9 -9 -5 3 -6 10 -3 15
9 13 12 11 12 -6z"/>
<path d="M9100 3184 c0 -97 2 -98 166 -90 108 6 134 5 134 -6 0 -10 3 -9 10 2
5 8 10 48 10 88 l0 72 -160 0 -160 0 0 -66z"/>
<path d="M9770 3243 c0 -5 30 -36 67 -70 37 -34 64 -66 60 -70 -4 -4 -36 23
-70 60 -34 37 -65 67 -70 67 -9 0 -9 -61 -1 -124 5 -36 9 -43 18 -32 6 8 28
21 48 30 37 15 52 9 53 -19 0 -5 5 -10 10 -10 6 0 17 -4 25 -9 12 -7 13 -6 3
5 -17 17 -16 26 2 33 8 3 14 0 12 -7 -1 -7 4 -11 11 -9 6 1 12 -2 12 -6 0 -4
-6 -14 -12 -22 -7 -8 -3 -6 9 4 13 10 20 23 17 27 -3 5 6 9 20 9 13 0 27 -6
30 -12 5 -10 7 -10 12 0 9 20 24 14 25 -10 2 -42 18 56 18 115 l1 57 -150 0
c-82 0 -150 -3 -150 -7z"/>
<path d="M10586 3221 c-4 -6 -2 -11 5 -11 9 0 9 -3 0 -14 -18 -22 4 -28 23 -7
11 13 14 21 7 26 -6 3 -11 3 -11 -2 0 -4 -4 -2 -9 6 -6 9 -11 10 -15 2z"/>
<path d="M6769 3003 c-13 -17 -13 -17 6 -3 11 8 22 16 24 17 2 2 0 3 -6 3 -6
0 -17 -8 -24 -17z"/>
</g>
</svg>
